<?xml version="1.0" encoding="UTF-8"?>
<svg xmlns="http://www.w3.org/2000/svg" viewBox="0 0 778.76 490.21">
  <defs>
    <style>
      .cls-1 {
        letter-spacing: 0em;
      }

      .cls-2 {
        stroke-dasharray: 12.21 13.23;
      }

      .cls-2, .cls-3 {
        stroke-width: 2px;
      }

      .cls-2, .cls-3, .cls-4, .cls-5, .cls-6 {
        fill: none;
        stroke: #fff;
      }

      .cls-2, .cls-3, .cls-5, .cls-6 {
        stroke-linecap: round;
        stroke-linejoin: round;
      }

      .cls-7 {
        letter-spacing: 0em;
      }

      .cls-8 {
        letter-spacing: -.02em;
      }

      .cls-4 {
        stroke-miterlimit: 10;
        stroke-width: 3px;
      }

      .cls-9 {
        fill: #fff;
        font-family: InterTight-SemiBoldItalic, 'Inter Tight';
        font-size: 9px;
        font-style: italic;
        font-weight: 600;
      }

      .cls-6 {
        stroke-width: .25px;
      }
    </style>
  </defs>
  <g id="Layer_4" data-name="Layer 4">
    <g>
      <line class="cls-5" x1="172.23" y1="21.31" x2="176.48" y2="21.31"/>
      <line class="cls-5" x1="176.48" y1="21.31" x2="321.7" y2="21.31"/>
      <line class="cls-5" x1="179.32" y1="14.58" x2="173.65" y2="28.04"/>
      <line class="cls-5" x1="436.37" y1="21.31" x2="601.68" y2="21.31"/>
      <line class="cls-5" x1="598.85" y1="28.04" x2="604.51" y2="14.58"/>
      <line class="cls-5" x1="601.68" y1="21.31" x2="605.93" y2="21.31"/>
      <line class="cls-5" x1="176.48" y1="33.93" x2="176.48" y2="8.69"/>
      <line class="cls-5" x1="601.68" y1="33.93" x2="601.68" y2="8.69"/>
      <text class="cls-9" transform="translate(326.1 24.58)"><tspan class="cls-7" x="0" y="0">P</tspan><tspan x="5.36" y="0">aque</tspan><tspan class="cls-1" x="25.62" y="0">t</tspan><tspan x="28.66" y="0">e: 3 met</tspan><tspan class="cls-8" x="61.38" y="0">r</tspan><tspan x="64.42" y="0">os lineales</tspan></text>
      <g>
        <line class="cls-3" x1="176.48" y1="44.1" x2="176.48" y2="50.1"/>
        <line class="cls-2" x1="176.48" y1="63.33" x2="176.48" y2="463.77"/>
        <line class="cls-3" x1="176.48" y1="470.39" x2="176.48" y2="476.39"/>
      </g>
      <g>
        <line class="cls-3" x1="601.68" y1="476.39" x2="601.68" y2="470.39"/>
        <line class="cls-2" x1="601.68" y1="457.16" x2="601.68" y2="56.72"/>
        <line class="cls-3" x1="601.68" y1="50.1" x2="601.68" y2="44.1"/>
      </g>
    </g>
  </g>
  <g id="Layer_5" data-name="Layer 5">
    <rect class="cls-4" x="11.52" y="44.1" width="755.13" height="432.28"/>
  </g>
  <g id="Layer_3" data-name="Layer 3">
    <g>
      <line class="cls-6" x1="763.66" y1="136.23" x2="766.64" y2="133.25"/>
      <line class="cls-6" x1="756.44" y1="136.23" x2="766.64" y2="126.03"/>
      <line class="cls-6" x1="749.23" y1="136.23" x2="766.64" y2="118.81"/>
      <line class="cls-6" x1="742.01" y1="136.23" x2="766.64" y2="111.6"/>
      <line class="cls-6" x1="734.8" y1="136.23" x2="766.64" y2="104.38"/>
      <line class="cls-6" x1="727.58" y1="136.23" x2="766.64" y2="97.17"/>
      <line class="cls-6" x1="720.36" y1="136.23" x2="766.79" y2="89.8"/>
      <line class="cls-6" x1="713.15" y1="136.23" x2="766.64" y2="82.73"/>
      <line class="cls-6" x1="705.93" y1="136.23" x2="766.64" y2="75.52"/>
      <line class="cls-6" x1="698.72" y1="136.23" x2="766.64" y2="68.3"/>
      <line class="cls-6" x1="691.5" y1="136.23" x2="766.64" y2="61.09"/>
      <line class="cls-6" x1="684.29" y1="136.23" x2="766.64" y2="53.87"/>
      <line class="cls-6" x1="677.07" y1="136.23" x2="766.64" y2="46.66"/>
      <line class="cls-6" x1="669.85" y1="136.23" x2="761.98" y2="44.1"/>
      <line class="cls-6" x1="662.64" y1="136.23" x2="754.77" y2="44.1"/>
      <line class="cls-6" x1="655.42" y1="136.23" x2="747.55" y2="44.1"/>
      <line class="cls-6" x1="648.21" y1="136.23" x2="740.33" y2="44.1"/>
      <line class="cls-6" x1="640.99" y1="136.23" x2="733.12" y2="44.1"/>
      <line class="cls-6" x1="633.77" y1="136.23" x2="725.9" y2="44.1"/>
      <line class="cls-6" x1="626.56" y1="136.23" x2="718.69" y2="44.1"/>
      <line class="cls-6" x1="619.34" y1="136.23" x2="711.47" y2="44.1"/>
      <line class="cls-6" x1="612.13" y1="136.23" x2="704.25" y2="44.1"/>
      <line class="cls-6" x1="604.91" y1="136.23" x2="697.04" y2="44.1"/>
      <line class="cls-6" x1="597.7" y1="136.23" x2="689.82" y2="44.1"/>
      <line class="cls-6" x1="590.48" y1="136.23" x2="682.61" y2="44.1"/>
      <line class="cls-6" x1="583.26" y1="136.23" x2="675.39" y2="44.1"/>
      <line class="cls-6" x1="576.05" y1="136.23" x2="668.18" y2="44.1"/>
      <line class="cls-6" x1="568.83" y1="136.23" x2="660.96" y2="44.1"/>
      <line class="cls-6" x1="561.62" y1="136.23" x2="653.74" y2="44.1"/>
      <line class="cls-6" x1="554.4" y1="136.23" x2="646.53" y2="44.1"/>
      <line class="cls-6" x1="547.18" y1="136.23" x2="639.31" y2="44.1"/>
      <line class="cls-6" x1="539.97" y1="136.23" x2="632.1" y2="44.1"/>
      <line class="cls-6" x1="532.75" y1="136.23" x2="624.88" y2="44.1"/>
      <line class="cls-6" x1="525.54" y1="136.23" x2="617.66" y2="44.1"/>
      <line class="cls-6" x1="518.32" y1="136.23" x2="610.45" y2="44.1"/>
      <line class="cls-6" x1="511.11" y1="136.23" x2="603.23" y2="44.1"/>
      <line class="cls-6" x1="503.89" y1="136.23" x2="596.02" y2="44.1"/>
      <line class="cls-6" x1="496.67" y1="136.23" x2="588.8" y2="44.1"/>
      <line class="cls-6" x1="489.46" y1="136.23" x2="581.59" y2="44.1"/>
      <line class="cls-6" x1="482.24" y1="136.23" x2="574.37" y2="44.1"/>
      <line class="cls-6" x1="475.03" y1="136.23" x2="567.15" y2="44.1"/>
      <line class="cls-6" x1="467.81" y1="136.23" x2="559.94" y2="44.1"/>
      <line class="cls-6" x1="460.59" y1="136.23" x2="552.72" y2="44.1"/>
      <line class="cls-6" x1="453.38" y1="136.23" x2="545.51" y2="44.1"/>
      <line class="cls-6" x1="446.16" y1="136.23" x2="538.29" y2="44.1"/>
      <line class="cls-6" x1="438.95" y1="136.23" x2="531.07" y2="44.1"/>
      <line class="cls-6" x1="431.73" y1="136.23" x2="523.86" y2="44.1"/>
      <line class="cls-6" x1="424.52" y1="136.23" x2="516.64" y2="44.1"/>
      <line class="cls-6" x1="417.3" y1="136.23" x2="509.43" y2="44.1"/>
      <line class="cls-6" x1="410.08" y1="136.23" x2="502.21" y2="44.1"/>
      <line class="cls-6" x1="402.87" y1="136.23" x2="495" y2="44.1"/>
      <line class="cls-6" x1="395.65" y1="136.23" x2="487.78" y2="44.1"/>
      <line class="cls-6" x1="388.44" y1="136.23" x2="480.56" y2="44.1"/>
      <line class="cls-6" x1="381.22" y1="136.23" x2="473.35" y2="44.1"/>
      <line class="cls-6" x1="374" y1="136.23" x2="466.13" y2="44.1"/>
      <line class="cls-6" x1="366.79" y1="136.23" x2="458.92" y2="44.1"/>
      <line class="cls-6" x1="359.57" y1="136.23" x2="451.7" y2="44.1"/>
      <line class="cls-6" x1="352.36" y1="136.23" x2="444.48" y2="44.1"/>
      <line class="cls-6" x1="345.14" y1="136.23" x2="437.27" y2="44.1"/>
      <line class="cls-6" x1="337.93" y1="136.23" x2="430.05" y2="44.1"/>
      <line class="cls-6" x1="330.71" y1="136.23" x2="422.84" y2="44.1"/>
      <line class="cls-6" x1="323.49" y1="136.23" x2="415.62" y2="44.1"/>
      <line class="cls-6" x1="316.28" y1="136.23" x2="408.41" y2="44.1"/>
      <line class="cls-6" x1="309.06" y1="136.23" x2="401.19" y2="44.1"/>
      <line class="cls-6" x1="301.85" y1="136.23" x2="393.97" y2="44.1"/>
      <line class="cls-6" x1="294.63" y1="136.23" x2="386.76" y2="44.1"/>
      <line class="cls-6" x1="287.41" y1="136.23" x2="379.54" y2="44.1"/>
      <line class="cls-6" x1="280.2" y1="136.23" x2="372.33" y2="44.1"/>
      <line class="cls-6" x1="272.98" y1="136.23" x2="365.11" y2="44.1"/>
      <line class="cls-6" x1="265.77" y1="136.23" x2="357.89" y2="44.1"/>
      <line class="cls-6" x1="258.55" y1="136.23" x2="350.68" y2="44.1"/>
      <line class="cls-6" x1="251.34" y1="136.23" x2="343.46" y2="44.1"/>
      <line class="cls-6" x1="244.12" y1="136.23" x2="336.25" y2="44.1"/>
      <line class="cls-6" x1="236.9" y1="136.23" x2="329.03" y2="44.1"/>
      <line class="cls-6" x1="229.69" y1="136.23" x2="321.82" y2="44.1"/>
      <line class="cls-6" x1="222.47" y1="136.23" x2="314.6" y2="44.1"/>
      <line class="cls-6" x1="215.26" y1="136.23" x2="307.38" y2="44.1"/>
      <line class="cls-6" x1="208.04" y1="136.23" x2="300.17" y2="44.1"/>
      <line class="cls-6" x1="200.82" y1="136.23" x2="292.95" y2="44.1"/>
      <line class="cls-6" x1="193.61" y1="136.23" x2="285.74" y2="44.1"/>
      <line class="cls-6" x1="186.39" y1="136.23" x2="278.52" y2="44.1"/>
      <line class="cls-6" x1="179.18" y1="136.23" x2="271.3" y2="44.1"/>
      <line class="cls-6" x1="171.96" y1="136.23" x2="264.09" y2="44.1"/>
      <line class="cls-6" x1="164.75" y1="136.23" x2="256.87" y2="44.1"/>
      <line class="cls-6" x1="157.53" y1="136.23" x2="249.66" y2="44.1"/>
      <line class="cls-6" x1="150.31" y1="136.23" x2="242.44" y2="44.1"/>
      <line class="cls-6" x1="143.1" y1="136.23" x2="235.23" y2="44.1"/>
      <line class="cls-6" x1="135.88" y1="136.23" x2="228.01" y2="44.1"/>
      <line class="cls-6" x1="128.67" y1="136.23" x2="220.79" y2="44.1"/>
      <line class="cls-6" x1="121.45" y1="136.23" x2="213.58" y2="44.1"/>
      <line class="cls-6" x1="114.23" y1="136.23" x2="206.36" y2="44.1"/>
      <line class="cls-6" x1="107.02" y1="136.23" x2="199.15" y2="44.1"/>
      <line class="cls-6" x1="99.8" y1="136.23" x2="191.93" y2="44.1"/>
      <line class="cls-6" x1="92.59" y1="136.23" x2="184.71" y2="44.1"/>
      <line class="cls-6" x1="85.37" y1="136.23" x2="177.5" y2="44.1"/>
      <line class="cls-6" x1="78.15" y1="136.23" x2="170.28" y2="44.1"/>
      <line class="cls-6" x1="70.94" y1="136.23" x2="163.07" y2="44.1"/>
      <line class="cls-6" x1="63.72" y1="136.23" x2="155.85" y2="44.1"/>
      <line class="cls-6" x1="56.51" y1="136.23" x2="148.64" y2="44.1"/>
      <line class="cls-6" x1="49.29" y1="136.23" x2="141.42" y2="44.1"/>
      <line class="cls-6" x1="42.08" y1="136.23" x2="134.2" y2="44.1"/>
      <line class="cls-6" x1="34.86" y1="136.23" x2="126.99" y2="44.1"/>
      <line class="cls-6" x1="27.64" y1="136.23" x2="119.77" y2="44.1"/>
      <line class="cls-6" x1="20.43" y1="136.23" x2="112.56" y2="44.1"/>
      <line class="cls-6" x1="13.21" y1="136.23" x2="105.34" y2="44.1"/>
      <line class="cls-6" x1="11.53" y1="130.69" x2="98.12" y2="44.1"/>
      <line class="cls-6" x1="11.53" y1="123.48" x2="90.91" y2="44.1"/>
      <line class="cls-6" x1="11.53" y1="116.26" x2="83.69" y2="44.1"/>
      <line class="cls-6" x1="11.53" y1="109.04" x2="76.48" y2="44.1"/>
      <line class="cls-6" x1="11.53" y1="101.83" x2="69.26" y2="44.1"/>
      <line class="cls-6" x1="11.53" y1="94.61" x2="62.05" y2="44.1"/>
      <line class="cls-6" x1="11.52" y1="87.41" x2="54.83" y2="44.1"/>
      <line class="cls-6" x1="11.52" y1="80.2" x2="47.61" y2="44.1"/>
      <line class="cls-6" x1="11.53" y1="72.97" x2="40.4" y2="44.1"/>
      <line class="cls-6" x1="11.53" y1="65.75" x2="33.18" y2="44.1"/>
      <line class="cls-6" x1="11.53" y1="58.53" x2="25.97" y2="44.1"/>
      <line class="cls-6" x1="11.53" y1="51.32" x2="18.75" y2="44.1"/>
    </g>
    <g>
      <line class="cls-6" x1="762.65" y1="476.39" x2="766.64" y2="472.39"/>
      <line class="cls-6" x1="755.43" y1="476.39" x2="766.64" y2="465.17"/>
      <line class="cls-6" x1="748.21" y1="476.39" x2="767.15" y2="457.45"/>
      <line class="cls-6" x1="741" y1="476.39" x2="766.64" y2="450.74"/>
      <line class="cls-6" x1="733.78" y1="476.39" x2="766.64" y2="443.53"/>
      <line class="cls-6" x1="726.57" y1="476.39" x2="766.64" y2="436.31"/>
      <line class="cls-6" x1="719.35" y1="476.39" x2="766.64" y2="429.1"/>
      <line class="cls-6" x1="712.14" y1="476.39" x2="766.64" y2="421.88"/>
      <line class="cls-6" x1="704.92" y1="476.39" x2="766.64" y2="414.66"/>
      <line class="cls-6" x1="697.7" y1="476.39" x2="766.64" y2="407.45"/>
      <line class="cls-6" x1="690.49" y1="476.39" x2="766.64" y2="400.23"/>
      <line class="cls-6" x1="683.27" y1="476.39" x2="766.64" y2="393.02"/>
      <line class="cls-6" x1="676.06" y1="476.39" x2="766.64" y2="385.8"/>
      <line class="cls-6" x1="668.84" y1="476.39" x2="766.64" y2="378.59"/>
      <line class="cls-6" x1="661.62" y1="476.39" x2="766.64" y2="371.37"/>
      <line class="cls-6" x1="654.41" y1="476.39" x2="766.64" y2="364.15"/>
      <line class="cls-6" x1="647.19" y1="476.39" x2="767.67" y2="355.92"/>
      <line class="cls-6" x1="639.98" y1="476.39" x2="760.45" y2="355.92"/>
      <line class="cls-6" x1="632.76" y1="476.39" x2="753.23" y2="355.92"/>
      <line class="cls-6" x1="625.55" y1="476.39" x2="746.02" y2="355.92"/>
      <line class="cls-6" x1="618.33" y1="476.39" x2="738.8" y2="355.92"/>
      <line class="cls-6" x1="611.11" y1="476.39" x2="731.59" y2="355.92"/>
      <line class="cls-6" x1="603.9" y1="476.39" x2="724.37" y2="355.92"/>
      <line class="cls-6" x1="596.68" y1="476.39" x2="717.16" y2="355.92"/>
      <line class="cls-6" x1="589.47" y1="476.39" x2="709.94" y2="355.92"/>
      <line class="cls-6" x1="582.25" y1="476.39" x2="702.72" y2="355.92"/>
      <line class="cls-6" x1="575.03" y1="476.39" x2="695.51" y2="355.92"/>
      <line class="cls-6" x1="567.82" y1="476.39" x2="688.29" y2="355.92"/>
      <line class="cls-6" x1="560.6" y1="476.39" x2="681.08" y2="355.92"/>
      <line class="cls-6" x1="553.39" y1="476.39" x2="673.86" y2="355.92"/>
      <line class="cls-6" x1="546.17" y1="476.39" x2="666.64" y2="355.92"/>
      <line class="cls-6" x1="538.96" y1="476.39" x2="659.43" y2="355.92"/>
      <line class="cls-6" x1="531.74" y1="476.39" x2="652.21" y2="355.92"/>
      <line class="cls-6" x1="524.52" y1="476.39" x2="645" y2="355.92"/>
      <line class="cls-6" x1="517.31" y1="476.39" x2="637.78" y2="355.92"/>
      <line class="cls-6" x1="510.09" y1="476.39" x2="630.57" y2="355.92"/>
      <line class="cls-6" x1="502.88" y1="476.39" x2="623.35" y2="355.92"/>
      <line class="cls-6" x1="495.66" y1="476.39" x2="616.13" y2="355.92"/>
      <line class="cls-6" x1="488.44" y1="476.39" x2="608.92" y2="355.92"/>
      <line class="cls-6" x1="481.23" y1="476.39" x2="601.7" y2="355.92"/>
      <line class="cls-6" x1="474.01" y1="476.39" x2="594.49" y2="355.92"/>
      <line class="cls-6" x1="466.8" y1="476.39" x2="587.27" y2="355.92"/>
      <line class="cls-6" x1="459.58" y1="476.39" x2="580.05" y2="355.92"/>
      <line class="cls-6" x1="452.37" y1="476.39" x2="572.84" y2="355.92"/>
      <line class="cls-6" x1="445.15" y1="476.39" x2="565.62" y2="355.92"/>
      <line class="cls-6" x1="437.93" y1="476.39" x2="558.41" y2="355.92"/>
      <line class="cls-6" x1="430.72" y1="476.39" x2="551.19" y2="355.92"/>
      <line class="cls-6" x1="423.5" y1="476.39" x2="543.98" y2="355.92"/>
      <line class="cls-6" x1="416.29" y1="476.39" x2="536.76" y2="355.92"/>
      <line class="cls-6" x1="409.07" y1="476.39" x2="529.54" y2="355.92"/>
      <line class="cls-6" x1="401.85" y1="476.39" x2="522.33" y2="355.92"/>
      <line class="cls-6" x1="394.64" y1="476.39" x2="515.11" y2="355.92"/>
      <line class="cls-6" x1="387.42" y1="476.39" x2="507.9" y2="355.92"/>
      <line class="cls-6" x1="380.21" y1="476.39" x2="500.68" y2="355.92"/>
      <line class="cls-6" x1="372.99" y1="476.39" x2="493.46" y2="355.92"/>
      <line class="cls-6" x1="365.77" y1="476.39" x2="486.25" y2="355.92"/>
      <line class="cls-6" x1="358.56" y1="476.39" x2="479.03" y2="355.92"/>
      <line class="cls-6" x1="351.34" y1="476.39" x2="471.82" y2="355.92"/>
      <line class="cls-6" x1="344.13" y1="476.39" x2="464.6" y2="355.92"/>
      <line class="cls-6" x1="336.91" y1="476.39" x2="457.39" y2="355.92"/>
      <line class="cls-6" x1="329.7" y1="476.39" x2="450.17" y2="355.92"/>
      <line class="cls-6" x1="322.48" y1="476.39" x2="442.95" y2="355.92"/>
      <line class="cls-6" x1="315.26" y1="476.39" x2="435.74" y2="355.92"/>
      <line class="cls-6" x1="308.05" y1="476.39" x2="428.52" y2="355.92"/>
      <line class="cls-6" x1="300.83" y1="476.39" x2="421.31" y2="355.92"/>
      <line class="cls-6" x1="293.62" y1="476.39" x2="414.09" y2="355.92"/>
      <line class="cls-6" x1="286.4" y1="476.39" x2="406.87" y2="355.92"/>
      <line class="cls-6" x1="279.18" y1="476.39" x2="399.66" y2="355.92"/>
      <line class="cls-6" x1="271.97" y1="476.39" x2="392.44" y2="355.92"/>
      <line class="cls-6" x1="264.75" y1="476.39" x2="385.23" y2="355.92"/>
      <line class="cls-6" x1="257.54" y1="476.39" x2="378.01" y2="355.92"/>
      <line class="cls-6" x1="250.32" y1="476.39" x2="370.8" y2="355.92"/>
      <line class="cls-6" x1="243.11" y1="476.39" x2="363.58" y2="355.92"/>
      <line class="cls-6" x1="235.89" y1="476.39" x2="356.36" y2="355.92"/>
      <line class="cls-6" x1="228.67" y1="476.39" x2="349.15" y2="355.92"/>
      <line class="cls-6" x1="221.46" y1="476.39" x2="341.93" y2="355.92"/>
      <line class="cls-6" x1="214.24" y1="476.39" x2="334.72" y2="355.92"/>
      <line class="cls-6" x1="207.03" y1="476.39" x2="327.5" y2="355.92"/>
      <line class="cls-6" x1="199.81" y1="476.39" x2="320.28" y2="355.92"/>
      <line class="cls-6" x1="192.59" y1="476.39" x2="313.07" y2="355.92"/>
      <line class="cls-6" x1="185.38" y1="476.39" x2="305.85" y2="355.92"/>
      <line class="cls-6" x1="178.16" y1="476.39" x2="298.64" y2="355.92"/>
      <line class="cls-6" x1="170.95" y1="476.39" x2="291.42" y2="355.92"/>
      <line class="cls-6" x1="163.73" y1="476.39" x2="284.21" y2="355.92"/>
      <line class="cls-6" x1="156.52" y1="476.39" x2="276.99" y2="355.92"/>
      <line class="cls-6" x1="149.3" y1="476.39" x2="269.77" y2="355.92"/>
      <line class="cls-6" x1="142.08" y1="476.39" x2="262.56" y2="355.92"/>
      <line class="cls-6" x1="134.87" y1="476.39" x2="255.34" y2="355.92"/>
      <line class="cls-6" x1="127.65" y1="476.39" x2="248.13" y2="355.92"/>
      <line class="cls-6" x1="120.44" y1="476.39" x2="240.91" y2="355.92"/>
      <line class="cls-6" x1="113.22" y1="476.39" x2="233.69" y2="355.92"/>
      <line class="cls-6" x1="106" y1="476.39" x2="226.48" y2="355.92"/>
      <line class="cls-6" x1="98.79" y1="476.39" x2="219.26" y2="355.92"/>
      <line class="cls-6" x1="91.57" y1="476.39" x2="212.05" y2="355.92"/>
      <line class="cls-6" x1="84.36" y1="476.39" x2="204.83" y2="355.92"/>
      <line class="cls-6" x1="77.14" y1="476.39" x2="197.62" y2="355.92"/>
      <line class="cls-6" x1="69.93" y1="476.39" x2="190.4" y2="355.92"/>
      <line class="cls-6" x1="62.71" y1="476.39" x2="183.18" y2="355.92"/>
      <line class="cls-6" x1="55.49" y1="476.39" x2="175.97" y2="355.92"/>
      <line class="cls-6" x1="48.28" y1="476.39" x2="168.75" y2="355.92"/>
      <line class="cls-6" x1="41.06" y1="476.39" x2="161.54" y2="355.92"/>
      <line class="cls-6" x1="33.85" y1="476.39" x2="154.32" y2="355.92"/>
      <line class="cls-6" x1="26.63" y1="476.39" x2="147.1" y2="355.92"/>
      <line class="cls-6" x1="19.41" y1="476.39" x2="139.89" y2="355.92"/>
      <line class="cls-6" x1="12.2" y1="476.39" x2="132.67" y2="355.92"/>
      <line class="cls-6" x1="11.52" y1="469.85" x2="125.46" y2="355.92"/>
      <line class="cls-6" x1="11.52" y1="462.64" x2="118.24" y2="355.92"/>
      <line class="cls-6" x1="11.52" y1="455.42" x2="111.03" y2="355.92"/>
      <line class="cls-6" x1="11.52" y1="448.2" x2="103.81" y2="355.92"/>
      <line class="cls-6" x1="11.52" y1="440.99" x2="96.59" y2="355.92"/>
      <line class="cls-6" x1="11.52" y1="433.77" x2="89.38" y2="355.92"/>
      <line class="cls-6" x1="11.52" y1="426.56" x2="82.16" y2="355.92"/>
      <line class="cls-6" x1="11.52" y1="419.34" x2="74.95" y2="355.92"/>
      <line class="cls-6" x1="11.52" y1="412.12" x2="67.73" y2="355.92"/>
      <line class="cls-6" x1="11.52" y1="404.91" x2="60.51" y2="355.92"/>
      <line class="cls-6" x1="11.52" y1="397.69" x2="53.3" y2="355.92"/>
      <line class="cls-6" x1="11.52" y1="390.48" x2="46.08" y2="355.92"/>
      <line class="cls-6" x1="11.52" y1="383.26" x2="38.87" y2="355.92"/>
      <line class="cls-6" x1="11.52" y1="376.05" x2="31.65" y2="355.92"/>
      <line class="cls-6" x1="11.52" y1="368.83" x2="24.43" y2="355.92"/>
      <line class="cls-6" x1="11.52" y1="361.61" x2="17.22" y2="355.92"/>
    </g>
  </g>
</svg>