<?xml version="1.0" encoding="UTF-8"?>
<svg xmlns="http://www.w3.org/2000/svg" viewBox="0 0 1920 1920">
  <defs>
    <style>
      .cls-1 {
        isolation: isolate;
      }

      .cls-2, .cls-3 {
        fill: #3459b6;
      }

      .cls-3 {
        mix-blend-mode: overlay;
      }
    </style>
  </defs>
  <g class="cls-1">
    <g id="Layer_3" data-name="Layer 3">
      <g>
        <path class="cls-3" d="M1322.95,484.61v86.69c0,7.47-6.05,13.52-13.52,13.52h-108.63c-11.25,0-17.58,12.94-10.67,21.82l120.58,154.89c6.91,8.88.58,21.82-10.67,21.82h-136.42c-7.47,0-13.52-6.05-13.52-13.52v-171.43c0-7.47-6.05-13.52-13.52-13.52h-39.59c-3.79,0-7.4-1.59-9.96-4.38l-87.97-95.83c-4.77-5.2-1.08-13.6,5.98-13.6h304.4c7.47,0,13.52,6.05,13.52,13.52Z"/>
        <path class="cls-3" d="M1061.3,759.63l-165.34-178.86c-4.51-4.88-4.55-12.38-.09-17.31l66.67-73.69c6.51-7.19,1.4-18.69-8.29-18.69h-280.07c-10.93,0-16.6,13.02-9.17,21.03l99.17,106.8c9.24,9.95,2.18,26.12-11.39,26.12h-79.32c-8.55,0-15.49,6.93-15.49,15.49v126.37c0,9.09,7.37,16.47,16.47,16.47h99.81c9.37,0,16.93-7.67,16.8-17.03l-1.82-130.22c-.03-2.03,1.61-3.68,3.63-3.68h0c1.01,0,1.98.42,2.67,1.17l130.26,140.8c5.29,5.72,12.73,8.97,20.52,8.97h104.6c12.32,0,18.74-14.67,10.38-23.72ZM856.07,567.53l-44.44,42.97c-8.58,8.29-22.9,2.21-22.9-9.71v-91.82c0-15.37,18.93-22.69,29.26-11.31l38.96,42.89c7.04,7.75,6.66,19.7-.88,26.98Z"/>
        <path class="cls-3" d="M1349.16,486.27v283.05c0,8.07,6.54,14.61,14.61,14.61h239c6.51,0,8.83-8.61,3.2-11.88l-127.75-74.31c-9.74-5.67-9.67-19.76.13-25.33l111.86-63.58c9.82-5.58,5.86-20.57-5.44-20.57h-166.82c-14.97,0-20.26-19.83-7.28-27.28l127.43-73.17c7.68-4.41,4.55-16.14-4.31-16.14h-170.04c-8.07,0-14.61,6.54-14.61,14.61Z"/>
        <path class="cls-3" d="M444.81,1123.27h-88.88c-11.31,0-20.49-9.17-20.49-20.49v-271.98c0-10.69,8.67-19.36,19.36-19.36h206.72c6.84,0,9.14,9.13,3.12,12.38l-167.17,90.09c-11.04,5.95-6.82,22.71,5.73,22.71h79.79c7.24,0,9.66,9.68,3.28,13.09l-65.92,35.2c-5.38,2.87-7.78,9.32-5.58,15.01l41.31,106.91c3.06,7.91-2.78,16.43-11.27,16.43Z"/>
        <path class="cls-3" d="M627.46,775.01v-296.82c0-7.59-9.3-11.24-14.46-5.67l-275.32,296.82c-4.95,5.34-1.17,14.02,6.12,14.02h131.16c4.61,0,8.34-3.74,8.34-8.34v-139.45c0-4.61,3.74-8.34,8.34-8.34h102.33c5.49,0,9.48,5.21,8.06,10.51l-36.37,135.11c-1.43,5.3,2.57,10.51,8.06,10.51h45.39c4.61,0,8.34-3.74,8.34-8.34Z"/>
        <path class="cls-3" d="M785.34,1114.64v-296.82c0-7.59-9.3-11.24-14.46-5.67l-275.32,296.82c-4.95,5.34-1.17,14.02,6.12,14.02h131.16c4.61,0,8.34-3.74,8.34-8.34v-139.45c0-4.61,3.74-8.34,8.34-8.34h102.33c5.49,0,9.48,5.21,8.06,10.51l-36.37,135.11c-1.43,5.3,2.57,10.51,8.06,10.51h45.39c4.61,0,8.34-3.74,8.34-8.34Z"/>
        <path class="cls-3" d="M817.6,828.68v276.8c0,9.67,7.84,17.51,17.51,17.51h96.09c10.17,0,16.53-11.01,11.45-19.82l-73.88-128.15c-3.14-5.44-3.12-12.14.04-17.57l76.96-132.02c3.69-6.32-.88-14.26-8.19-14.26h-102.46c-9.67,0-17.51,7.84-17.51,17.51Z"/>
        <path class="cls-3" d="M1142.64,1111.89v-176.42c0-6.13,4.97-11.1,11.1-11.1h158.12c6.13,0,11.1-4.97,11.1-11.1v-91.01c0-6.13-4.97-11.1-11.1-11.1h-334.83c-7.64,0-11.59,9.12-6.38,14.69l88.71,94.84c2.1,2.24,5.03,3.52,8.11,3.52h31.24c9.23,0,14.43,10.62,8.76,17.91l-126.7,162.94c-5.67,7.29-.47,17.91,8.76,17.91h142.01c6.13,0,11.1-4.97,11.1-11.1Z"/>
        <path class="cls-3" d="M1651.24,1090.47l-71.07-259.47c-3.12-11.37-13.45-19.26-25.24-19.26h-179.59c-14.46,0-26.17,11.72-26.17,26.17v259.47c0,14.46,11.72,26.17,26.17,26.17h250.66c17.27,0,29.81-16.43,25.24-33.09ZM1524.99,1095.28c-26.76,7.66-64.77-43.07-84.88-113.32-20.11-70.25-14.72-133.41,12.04-141.07,26.76-7.66,64.77,43.07,84.88,113.32,20.11,70.25,14.72,133.41-12.04,141.07Z"/>
        <path class="cls-2" d="M767.35,1298.47v44.02c0,3.79-3.07,6.86-6.86,6.86h-55.16c-5.71,0-8.93,6.57-5.42,11.08l61.22,78.64c3.51,4.51.3,11.08-5.42,11.08h-69.27c-3.79,0-6.86-3.07-6.86-6.86v-87.04c0-3.79-3.07-6.86-6.86-6.86h-20.1c-1.92,0-3.76-.81-5.06-2.22l-44.66-48.66c-2.42-2.64-.55-6.9,3.03-6.9h154.55c3.79,0,6.86,3.07,6.86,6.86Z"/>
        <path class="cls-2" d="M636.66,1438.11l-83.95-90.81c-2.29-2.48-2.31-6.29-.05-8.79l33.85-37.42c3.3-3.65.71-9.49-4.21-9.49h-142.2c-5.55,0-8.43,6.61-4.66,10.68l50.35,54.23c4.69,5.05,1.11,13.26-5.78,13.26h-40.27c-4.34,0-7.86,3.52-7.86,7.86v64.16c0,4.62,3.74,8.36,8.36,8.36h50.68c4.76,0,8.6-3.89,8.53-8.65l-.92-66.12c-.01-1.03.82-1.87,1.84-1.87.51,0,1,.21,1.35.59l66.14,71.49c2.69,2.9,6.46,4.55,10.42,4.55h53.11c6.26,0,9.52-7.45,5.27-12.04ZM532.46,1340.57l-22.56,21.82c-4.35,4.21-11.63,1.12-11.63-4.93v-46.62c0-7.81,9.61-11.52,14.86-5.74l19.78,21.78c3.58,3.94,3.38,10-.44,13.7Z"/>
        <path class="cls-2" d="M416.08,1445.92v-150.71c0-3.85-4.72-5.7-7.34-2.88l-139.79,150.71c-2.51,2.71-.59,7.12,3.11,7.12h66.59c2.34,0,4.24-1.9,4.24-4.24v-70.8c0-2.34,1.9-4.24,4.24-4.24h51.96c2.79,0,4.82,2.65,4.09,5.34l-18.47,68.6c-.72,2.69,1.3,5.34,4.09,5.34h23.05c2.34,0,4.24-1.9,4.24-4.24Z"/>
        <path class="cls-2" d="M1436.12,1445.55v-150.29c0-3.84-4.71-5.69-7.32-2.87l-139.4,150.29c-2.51,2.7-.59,7.1,3.1,7.1h66.41c2.33,0,4.22-1.89,4.22-4.22v-70.61c0-2.33,1.89-4.22,4.22-4.22h51.81c2.78,0,4.8,2.64,4.08,5.32l-18.41,68.41c-.72,2.68,1.3,5.32,4.08,5.32h22.98c2.33,0,4.22-1.89,4.22-4.22Z"/>
        <path class="cls-2" d="M1267.06,1444.16v-89.32c0-3.1,2.52-5.62,5.62-5.62h80.06c3.1,0,5.62-2.52,5.62-5.62v-46.08c0-3.1-2.52-5.62-5.62-5.62h-169.53c-3.87,0-5.87,4.62-3.23,7.44l44.92,48.02c1.06,1.14,2.55,1.78,4.1,1.78h15.82c4.68,0,7.31,5.38,4.44,9.07l-64.15,82.5c-2.87,3.69-.24,9.07,4.44,9.07h71.9c3.1,0,5.62-2.52,5.62-5.62Z"/>
        <path class="cls-2" d="M788.04,1291.61h160.64c4.07,0,7.37,3.3,7.37,7.37v35.2c0,5.46-5.73,9.03-10.63,6.62l-62.48-30.74c-3.44-1.69-7.3,1.37-6.44,5.1l22.28,96.61c.77,3.33,3.72,5.69,7.14,5.72,10.27.07,31.45-.04,42.71-.12,4.09-.03,7.42,3.28,7.42,7.37v18.04c0,4.07-3.3,7.37-7.37,7.37-33.34,0-168.4.03-168.02,0,.3-.02.19-28.46.09-46.85-.03-6.17,7.08-9.65,11.93-5.83l40.67,31.98c2.09,1.65,5.19.49,5.68-2.13l18.37-97.54c.85-4.51-2.58-8.69-7.16-8.74l-62.31-.72c-4.04-.05-7.29-3.33-7.29-7.37v-13.95c0-4.07,3.3-7.37,7.37-7.37Z"/>
        <path class="cls-2" d="M1480.95,1311.75h0c-9.63,10.02-6.02,26.61,6.9,31.73l82.94,32.85c11.63,4.61,21.33,13.07,27.48,23.96h0c3.61,6.39,3.64,14.19.1,20.61h0c-5.38,9.75-15.69,15.76-26.83,15.61h0c-10.85-.14-21.39-3.64-30.17-10.02l-72.96-53.09c-4.26-3.1-10.23-.06-10.23,5.21v64.63c0,3.56,2.88,6.44,6.44,6.44h65.98s115.55-.44,115.55-.44c3.98-.02,6.86-3.81,5.81-7.65l-37.93-138.3c-1.61-6.96-3.8-12.59-17.19-12.16h-67.49c-18.27,0-35.75,7.45-48.4,20.62Z"/>
        <path class="cls-2" d="M997.48,1311.75h0c-9.63,10.02-6.02,26.61,6.9,31.73l82.94,32.85c11.63,4.61,21.33,13.07,27.48,23.96h0c3.61,6.39,3.64,14.19.1,20.61h0c-5.38,9.75-15.69,15.76-26.83,15.61h0c-10.85-.14-21.39-3.64-30.17-10.02l-72.96-53.09c-4.26-3.1-10.23-.06-10.23,5.21v64.63c0,3.56,2.88,6.44,6.44,6.44h65.98s115.55-.44,115.55-.44c3.98-.02,6.86-3.81,5.81-7.65l-37.93-138.3c-1.61-6.96-3.8-12.59-17.19-12.16h-67.49c-18.27,0-35.75,7.45-48.4,20.62Z"/>
      </g>
    </g>
  </g>
</svg>