<?xml version="1.0" encoding="UTF-8"?>
<svg xmlns="http://www.w3.org/2000/svg" viewBox="0 0 1920 1920">
  <defs>
    <style>
      .cls-1 {
        letter-spacing: -.05em;
      }

      .cls-2 {
        letter-spacing: -.05em;
      }

      .cls-3 {
        letter-spacing: -.07em;
      }

      .cls-4 {
        letter-spacing: 2.73em;
      }

      .cls-5 {
        isolation: isolate;
      }

      .cls-6 {
        letter-spacing: -.16em;
      }

      .cls-7 {
        letter-spacing: -.14em;
      }

      .cls-8, .cls-9 {
        fill: #fff;
        mix-blend-mode: overlay;
      }

      .cls-10 {
        letter-spacing: -.05em;
      }

      .cls-11 {
        letter-spacing: -.08em;
      }

      .cls-12 {
        letter-spacing: -.08em;
      }

      .cls-9 {
        font-family: InterTight-BlackItalic, 'Inter Tight';
        font-size: 114.68px;
        font-style: italic;
        font-weight: 800;
      }
    </style>
  </defs>
  <g class="cls-5">
    <g id="Layer_3" data-name="Layer 3">
      <g>
        <text class="cls-9" transform="translate(301.62 1355.79)"><tspan class="cls-1" x="0" y="0">ÉTI</tspan><tspan class="cls-3" x="157.55" y="0">C</tspan><tspan class="cls-11" x="234.4" y="0">A</tspan><tspan class="cls-10" x="313.78" y="0">S</tspan><tspan class="cls-4" x="381.51" y="0"> </tspan><tspan class="cls-2" x="715.29" y="0">CRE</tspan><tspan class="cls-7" x="926.48" y="0">A</tspan><tspan class="cls-2" x="998.52" y="0">TI</tspan><tspan class="cls-6" x="1093.38" y="0">V</tspan><tspan class="cls-12" x="1163.68" y="0">A</tspan><tspan class="cls-2" x="1243.06" y="0">S</tspan></text>
        <path class="cls-8" d="M1289.14,576.74v86.69c0,7.47-6.05,13.52-13.52,13.52h-108.63c-11.25,0-17.58,12.94-10.67,21.82l120.58,154.89c6.91,8.88.58,21.82-10.67,21.82h-136.42c-7.47,0-13.52-6.05-13.52-13.52v-171.43c0-7.47-6.05-13.52-13.52-13.52h-39.59c-3.79,0-7.4-1.59-9.96-4.38l-87.97-95.83c-4.77-5.2-1.08-13.6,5.98-13.6h304.4c7.47,0,13.52,6.05,13.52,13.52Z"/>
        <path class="cls-8" d="M1027.49,851.77l-165.34-178.86c-4.51-4.88-4.55-12.38-.09-17.31l66.67-73.69c6.51-7.19,1.4-18.69-8.29-18.69h-280.07c-10.93,0-16.6,13.02-9.17,21.03l99.17,106.8c9.24,9.95,2.18,26.12-11.39,26.12h-79.32c-8.55,0-15.49,6.93-15.49,15.49v126.37c0,9.09,7.37,16.47,16.47,16.47h99.81c9.37,0,16.93-7.67,16.8-17.03l-1.82-130.22c-.03-2.03,1.61-3.68,3.63-3.68h0c1.01,0,1.98.42,2.67,1.17l130.26,140.8c5.29,5.72,12.73,8.97,20.52,8.97h104.6c12.32,0,18.74-14.67,10.38-23.72ZM822.26,659.67l-44.44,42.97c-8.58,8.29-22.9,2.21-22.9-9.71v-91.82c0-15.37,18.93-22.69,29.26-11.31l38.96,42.89c7.04,7.75,6.66,19.7-.88,26.98Z"/>
        <path class="cls-8" d="M1315.35,578.41v283.05c0,8.07,6.54,14.61,14.61,14.61h239c6.51,0,8.83-8.61,3.2-11.88l-127.75-74.31c-9.74-5.67-9.67-19.76.13-25.33l111.86-63.58c9.82-5.58,5.86-20.57-5.44-20.57h-166.82c-14.97,0-20.26-19.83-7.28-27.28l127.43-73.17c7.68-4.41,4.55-16.14-4.31-16.14h-170.04c-8.07,0-14.61,6.54-14.61,14.61Z"/>
        <path class="cls-8" d="M411,1215.41h-88.88c-11.31,0-20.49-9.17-20.49-20.49v-271.98c0-10.69,8.67-19.36,19.36-19.36h206.72c6.84,0,9.14,9.13,3.12,12.38l-167.17,90.09c-11.04,5.95-6.82,22.71,5.73,22.71h79.79c7.24,0,9.66,9.68,3.28,13.09l-65.92,35.2c-5.38,2.87-7.78,9.32-5.58,15.01l41.31,106.91c3.06,7.91-2.78,16.43-11.27,16.43Z"/>
        <path class="cls-8" d="M593.65,867.15v-296.82c0-7.59-9.3-11.24-14.46-5.67l-275.32,296.82c-4.95,5.34-1.17,14.02,6.12,14.02h131.16c4.61,0,8.34-3.74,8.34-8.34v-139.45c0-4.61,3.74-8.34,8.34-8.34h102.33c5.49,0,9.48,5.21,8.06,10.51l-36.37,135.11c-1.43,5.3,2.57,10.51,8.06,10.51h45.39c4.61,0,8.34-3.74,8.34-8.34Z"/>
        <path class="cls-8" d="M751.53,1206.78v-296.82c0-7.59-9.3-11.24-14.46-5.67l-275.32,296.82c-4.95,5.34-1.17,14.02,6.12,14.02h131.16c4.61,0,8.34-3.74,8.34-8.34v-139.45c0-4.61,3.74-8.34,8.34-8.34h102.33c5.49,0,9.48,5.21,8.06,10.51l-36.37,135.11c-1.43,5.3,2.57,10.51,8.06,10.51h45.39c4.61,0,8.34-3.74,8.34-8.34Z"/>
        <path class="cls-8" d="M783.79,920.81v276.8c0,9.67,7.84,17.51,17.51,17.51h96.09c10.17,0,16.53-11.01,11.45-19.82l-73.88-128.15c-3.14-5.44-3.12-12.14.04-17.57l76.96-132.02c3.69-6.32-.88-14.26-8.19-14.26h-102.46c-9.67,0-17.51,7.84-17.51,17.51Z"/>
        <path class="cls-8" d="M1108.83,1204.02v-176.42c0-6.13,4.97-11.1,11.1-11.1h158.12c6.13,0,11.1-4.97,11.1-11.1v-91.01c0-6.13-4.97-11.1-11.1-11.1h-334.83c-7.64,0-11.59,9.12-6.38,14.69l88.71,94.84c2.1,2.24,5.03,3.52,8.11,3.52h31.24c9.23,0,14.43,10.62,8.76,17.91l-126.7,162.94c-5.67,7.29-.47,17.91,8.76,17.91h142.01c6.13,0,11.1-4.97,11.1-11.1Z"/>
        <path class="cls-8" d="M1617.43,1182.61l-71.07-259.47c-3.12-11.37-13.45-19.26-25.24-19.26h-179.59c-14.46,0-26.17,11.72-26.17,26.17v259.47c0,14.46,11.72,26.17,26.17,26.17h250.66c17.27,0,29.81-16.43,25.24-33.09ZM1491.18,1187.42c-26.76,7.66-64.77-43.07-84.88-113.32-20.11-70.25-14.72-133.41,12.04-141.07,26.76-7.66,64.77,43.07,84.88,113.32,20.11,70.25,14.72,133.41-12.04,141.07Z"/>
      </g>
    </g>
  </g>
</svg>