<?xml version="1.0" encoding="UTF-8"?>
<svg id="Layer_3" data-name="Layer 3" xmlns="http://www.w3.org/2000/svg" viewBox="0 0 300 300">
  <defs>
    <style>
      .cls-1 {
        fill: #fff;
      }
    </style>
  </defs>
  <path class="cls-1" d="M68.29,247.33V55.89c0-5.55,4.5-10.04,10.04-10.04h155.53c5.55,0,10.04,4.5,10.04,10.04v36.39c0,7.12-7.2,11.98-13.81,9.31l-89.48-36.17c-8.7-3.52-17.04,5.76-12.63,14.04l21.88,41.03c3.57,6.69-1.28,14.77-8.86,14.77h-41.3c-5.55,0-10.04,4.5-10.04,10.04h0c0,5.55,4.5,10.04,10.04,10.04h32.5c7.23,0,12.09,7.41,9.21,14.05l-37.15,85.43c-8.12,18.67-35.98,12.87-35.98-7.49Z"/>
</svg>