<?xml version="1.0" encoding="UTF-8"?>
<svg xmlns="http://www.w3.org/2000/svg" xmlns:xlink="http://www.w3.org/1999/xlink" viewBox="0 0 2644.43 2644.43">
  <defs>
    <style>
      .cls-1 {
        fill: url(#linear-gradient-10);
      }

      .cls-1, .cls-2, .cls-3, .cls-4, .cls-5, .cls-6, .cls-7, .cls-8, .cls-9, .cls-10, .cls-11, .cls-12 {
        mix-blend-mode: overlay;
      }

      .cls-2 {
        fill: url(#linear-gradient-8);
      }

      .cls-3 {
        fill: url(#linear-gradient-2);
      }

      .cls-13 {
        stroke: #ef5e5e;
        stroke-miterlimit: 10;
        stroke-width: 2px;
      }

      .cls-13, .cls-4, .cls-14 {
        fill: none;
      }

      .cls-5 {
        fill: url(#linear-gradient);
      }

      .cls-15 {
        isolation: isolate;
      }

      .cls-6 {
        fill: url(#linear-gradient-3);
      }

      .cls-7 {
        fill: url(#linear-gradient-4);
      }

      .cls-8 {
        fill: #fff;
      }

      .cls-16 {
        fill: #b93232;
      }

      .cls-9 {
        fill: url(#linear-gradient-7);
      }

      .cls-10 {
        fill: url(#linear-gradient-9);
      }

      .cls-11 {
        fill: url(#linear-gradient-5);
      }

      .cls-12 {
        fill: url(#linear-gradient-6);
      }
    </style>
    <linearGradient id="linear-gradient" x1="451.73" y1="1203.01" x2="451.73" y2="163.02" gradientUnits="userSpaceOnUse">
      <stop offset=".22" stop-color="#fff"/>
      <stop offset=".51" stop-color="#fdfdfd" stop-opacity=".99"/>
      <stop offset=".62" stop-color="#f6f6f6" stop-opacity=".97"/>
      <stop offset=".69" stop-color="#eaeaea" stop-opacity=".92"/>
      <stop offset=".75" stop-color="#d9d9d9" stop-opacity=".85"/>
      <stop offset=".8" stop-color="#c3c3c3" stop-opacity=".77"/>
      <stop offset=".85" stop-color="#a8a8a8" stop-opacity=".66"/>
      <stop offset=".89" stop-color="#878787" stop-opacity=".53"/>
      <stop offset=".93" stop-color="#626262" stop-opacity=".39"/>
      <stop offset=".96" stop-color="#373737" stop-opacity=".22"/>
      <stop offset=".99" stop-color="#090909" stop-opacity=".04"/>
      <stop offset="1" stop-color="#000" stop-opacity="0"/>
    </linearGradient>
    <linearGradient id="linear-gradient-2" x1="1009.3" y1="1639.81" x2="96.37" y2="2552.74" gradientUnits="userSpaceOnUse">
      <stop offset="0" stop-color="#fff"/>
      <stop offset=".15" stop-color="#fbfbfb" stop-opacity=".99"/>
      <stop offset=".28" stop-color="#f1f1f1" stop-opacity=".95"/>
      <stop offset=".4" stop-color="#dfdfdf" stop-opacity=".88"/>
      <stop offset=".52" stop-color="#c7c7c7" stop-opacity=".78"/>
      <stop offset=".63" stop-color="#a7a7a7" stop-opacity=".66"/>
      <stop offset=".74" stop-color="gray" stop-opacity=".5"/>
      <stop offset=".85" stop-color="#515151" stop-opacity=".32"/>
      <stop offset=".95" stop-color="#1d1d1d" stop-opacity=".12"/>
      <stop offset="1" stop-color="#000" stop-opacity="0"/>
    </linearGradient>
    <linearGradient id="linear-gradient-3" x1="1851.35" y1="660.32" x2="2426.99" y2="992.67" gradientUnits="userSpaceOnUse">
      <stop offset="0" stop-color="#fff"/>
      <stop offset=".15" stop-color="#fbfbfb" stop-opacity=".99"/>
      <stop offset=".28" stop-color="#f1f1f1" stop-opacity=".95"/>
      <stop offset=".4" stop-color="#dfdfdf" stop-opacity=".88"/>
      <stop offset=".52" stop-color="#c7c7c7" stop-opacity=".78"/>
      <stop offset=".63" stop-color="#a7a7a7" stop-opacity=".66"/>
      <stop offset=".74" stop-color="gray" stop-opacity=".5"/>
      <stop offset=".85" stop-color="#515151" stop-opacity=".32"/>
      <stop offset=".95" stop-color="#1d1d1d" stop-opacity=".12"/>
      <stop offset="1" stop-color="#000" stop-opacity="0"/>
    </linearGradient>
    <linearGradient id="linear-gradient-4" x1="2539.7" y1="1223.15" x2="2625.09" y2="1223.15" gradientUnits="userSpaceOnUse">
      <stop offset="0" stop-color="#fff"/>
      <stop offset=".15" stop-color="#fbfbfb" stop-opacity=".99"/>
      <stop offset=".28" stop-color="#f1f1f1" stop-opacity=".95"/>
      <stop offset=".4" stop-color="#dfdfdf" stop-opacity=".88"/>
      <stop offset=".52" stop-color="#c7c7c7" stop-opacity=".78"/>
      <stop offset=".63" stop-color="#a7a7a7" stop-opacity=".66"/>
      <stop offset=".74" stop-color="gray" stop-opacity=".5"/>
      <stop offset=".85" stop-color="#515151" stop-opacity=".32"/>
      <stop offset=".95" stop-color="#1d1d1d" stop-opacity=".12"/>
      <stop offset="1" stop-color="#000" stop-opacity="0"/>
    </linearGradient>
    <linearGradient id="linear-gradient-5" x1="1846.12" y1="1193.62" x2="2036.29" y2="1193.62" xlink:href="#linear-gradient-4"/>
    <linearGradient id="linear-gradient-6" x1="1928.24" y1="1169.94" x2="2539.7" y2="1169.94" xlink:href="#linear-gradient-4"/>
    <linearGradient id="linear-gradient-7" x1="581.23" y1="517.64" x2="2373" y2="517.64" gradientUnits="userSpaceOnUse">
      <stop offset=".32" stop-color="#fff"/>
      <stop offset="1" stop-color="#000" stop-opacity="0"/>
    </linearGradient>
    <linearGradient id="linear-gradient-8" x1="696.42" y1="1487.99" x2="696.42" y2="844.28" gradientUnits="userSpaceOnUse">
      <stop offset="0" stop-color="#fff"/>
      <stop offset=".15" stop-color="#fbfbfb" stop-opacity=".99"/>
      <stop offset=".28" stop-color="#f1f1f1" stop-opacity=".95"/>
      <stop offset=".4" stop-color="#dfdfdf" stop-opacity=".88"/>
      <stop offset=".52" stop-color="#c7c7c7" stop-opacity=".78"/>
      <stop offset=".63" stop-color="#a7a7a7" stop-opacity=".66"/>
      <stop offset=".74" stop-color="gray" stop-opacity=".5"/>
      <stop offset=".85" stop-color="#515151" stop-opacity=".32"/>
      <stop offset=".95" stop-color="#1d1d1d" stop-opacity=".12"/>
      <stop offset="1" stop-color="#000" stop-opacity="0"/>
    </linearGradient>
    <linearGradient id="linear-gradient-9" x1="1639.23" y1="1667.66" x2="1157.97" y2="1667.66" gradientUnits="userSpaceOnUse">
      <stop offset="0" stop-color="#fff"/>
      <stop offset=".15" stop-color="#fbfbfb" stop-opacity=".99"/>
      <stop offset=".28" stop-color="#f1f1f1" stop-opacity=".95"/>
      <stop offset=".4" stop-color="#dfdfdf" stop-opacity=".88"/>
      <stop offset=".52" stop-color="#c7c7c7" stop-opacity=".78"/>
      <stop offset=".63" stop-color="#a7a7a7" stop-opacity=".66"/>
      <stop offset=".74" stop-color="gray" stop-opacity=".5"/>
      <stop offset=".85" stop-color="#515151" stop-opacity=".32"/>
      <stop offset=".95" stop-color="#1d1d1d" stop-opacity=".12"/>
      <stop offset="1" stop-color="#000" stop-opacity="0"/>
    </linearGradient>
    <linearGradient id="linear-gradient-10" x1="2107.43" y1="2268.83" x2="2107.43" y2="1330.35" gradientUnits="userSpaceOnUse">
      <stop offset="0" stop-color="#fff"/>
      <stop offset="1" stop-color="#000" stop-opacity="0"/>
    </linearGradient>
  </defs>
  <g class="cls-15">
    <g id="Layer_12" data-name="Layer 12">
      <g>
        <rect class="cls-16" x="1" y="-22.43" width="2664.64" height="2666.55"/>
        <path class="cls-5" d="M727.04,275.23h-158.08c-41.58,0-75.29,33.7-75.29,75.29v404.85h-109.07c-36.75,0-66.54,29.79-66.54,66.54h0c0,36.75,29.79,66.54,66.54,66.54h83.59l-291.78,314.57V229.56c0-36.75,29.79-66.54,66.54-66.54h379.13l104.96,112.21Z"/>
        <path class="cls-8" d="M493.68,1302.74v63.51l-78.85,181.33c-53.79,123.68-238.41,85.28-238.41-49.6v-195.24h317.26Z"/>
        <path class="cls-3" d="M1055.45,2005.5v220.77c0,13.87-11.25,25.11-25.11,25.11h-136.64c-2.05,0-4.04-.24-5.93-.7l64.38,235.06c13.16,48.05-23,95.46-72.83,95.46H156.12c-41.71,0-75.51-33.81-75.51-75.51v-748.61c0-41.71,33.81-75.51,75.51-75.51h516.44l-145.23,156.58c-117.55-75.29-216.17-70.6-219.13-72.82-3.48-2.61-85.18-5.21-112.99,26.95-27.82,32.16,8.25,73.02,8.25,73.02l137.99,173.26-158.29,170.65c-14.91,16.07-3.51,42.2,18.41,42.2h309.4l128.62,161.5s5.65,6.52,32.38,35.85c26.73,29.34,63.78,13.58,63.78,13.58,0,0,29.45-13.58,43.14-59.21,13.69-45.64,0-128.43,0-128.43,0,0-37.99-225.67-157.39-358.5v-109.67c0-13.87,11.25-25.11,25.11-25.11h112.6l115.1,420.22,104.6-388.57c4.3-15.96-7.73-31.65-24.25-31.65h-195.45l-12.13-44.26c-8.99-32.82-38.81-55.57-72.83-55.57h-1.69l44.88-48.39h285.21v318.13c0,29.46,23.5,53.44,52.79,54.2Z"/>
        <path class="cls-13" d="M1846.12,669.36v261.98h-4.33c-24.18,0-38.48,25.94-27.37,46.03h-89.42v-14.72c0-17.2-13.94-31.14-31.14-31.14h-91.19c-8.72,0-17.04-3.66-22.94-10.08l-117.64-128.16v-107.4c0-5.75.86-11.29,2.47-16.51h381.57Z"/>
        <path class="cls-6" d="M2568.34,738.38l-335.15,190.5c-29.36,16.69-29.57,58.92-.38,75.9l123.95,72.09h-465.38l-45.26-58.14-28.9-37.13c-1.07-1.37-2-2.79-2.8-4.24-11.11-20.09,3.19-46.03,27.37-46.03h4.33v-261.98h245.9c7.68,0,14.71,2.79,20.13,7.4h439.89c33.85,0,45.72,44.9,16.29,61.62Z"/>
        <path class="cls-13" d="M2035.75,1388.66h-203.17l-46.35-50.14c-2.34-2.53-4.31-5.28-5.92-8.18-8.59-15.47-6.74-35.16,5.61-48.81l21.62-23.9,126.64,72.72,101.56,58.31Z"/>
        <path class="cls-13" d="M1913.22,1639.22h150.98l-137.44-148.69c-12,38.52-16.65,89.79-13.53,148.69Z"/>
        <path class="cls-13" d="M1462.09,977.37v76.05c-16.65,8.94-28.94,26.18-28.94,48.66v227.71h-144.4l-260.61-280.66-2.34-2.53c-24.48-26.36-5.78-69.24,30.19-69.24h406.11Z"/>
        <path class="cls-13" d="M1628.35,1154.74l96.65,55.5v125.59c-29.19,11.53-49.84,40-49.84,73.29v230.1h-190.25l34.01-58.35,115.46-198.07c11.44-19.62,1.51-43.43-17.91-50.76l38.41-37.14c24.8-23.97,26.08-63.31,2.88-88.84l-128.26-141.21c-18.92-20.83-46.57-22.63-67.41-11.44v-76.05h262.91v99.5h-75.88c-42.72,0-57.81,56.59-20.77,77.87Z"/>
        <path class="cls-13" d="M1157.97,1633.18v372.34h-101.09c-.48,0-.96,0-1.43-.02v-372.32h102.52Z"/>
        <path class="cls-13" d="M1386.59,2005.51l-38.43-66.65c-11.66-20.22-11.6-45.13.15-65.29l66.31-113.76,23.73,13.49,2.46,176.15c.42,30.49-23.88,55.49-54.23,56.07Z"/>
        <path class="cls-7" d="M2605.97,1263.01h-66.27v-79.73l75.87,44.13c16.86,9.81,9.9,35.6-9.6,35.6Z"/>
        <path class="cls-13" d="M2027.45,669.36h-181.33v-39.56h162.37c-.91,15.22,6.02,30.72,18.96,39.56Z"/>
        <path class="cls-13" d="M2412.23,375.81c23.01-13.21,13.64-48.37-12.9-48.37h-26.33v70.89l39.23-22.53Z"/>
        <polygon class="cls-4" points="1891.39 1076.87 1846.12 1076.87 1846.12 1018.74 1891.39 1076.87"/>
        <polygon class="cls-8" points="1675.16 1749.76 1675.16 1907.89 1438.35 1773.29 1437.61 1720.36 1484.91 1639.22 1572.9 1639.22 1675.16 1749.76"/>
        <path class="cls-13" d="M2539.7,1263.01v743.32l-169.28-618.02c-9.38-34.23-40.49-57.96-75.97-57.96h-205.74l-52.42-67.33h503.41Z"/>
        <path class="cls-13" d="M2263.05,1854.34l-198.85-215.12h133.85c15.89,36.94,30.31,77.24,42.54,119.93,9.28,32.41,16.75,64.31,22.47,95.19Z"/>
        <path class="cls-13" d="M2539.7,1147.35v35.93l-182.93-106.41h112.46c38.92,0,70.48,31.56,70.48,70.48Z"/>
        <path class="cls-13" d="M2539.7,2262.37v250.16c0,38.93-31.56,70.48-70.48,70.48h-1152.76c-31.39,0-42.59-41.52-15.45-57.31l63.29-36.82h215.94c37.8,0,61.45-40.92,42.56-73.67l-33.11-57.43,154.06-89.61c3.33.43,6.73.66,10.18.66h754.41c11.24,0,21.82-2.32,31.35-6.45Z"/>
        <path class="cls-13" d="M2277.13,2005.53c-1.35,96.24-26.4,164.93-72.79,178.2-57.74,16.53-132.85-57.24-193.06-178.2h265.84Z"/>
        <polygon class="cls-8" points="1846.12 1076.87 1846.12 1214.99 1807.54 1257.63 1725 1210.24 1725 1076.87 1846.12 1076.87"/>
        <path class="cls-11" d="M2036.29,1263.01h-146.38c-24.18,0-43.78-19.6-43.78-43.78v-4.25l82.12-90.77,108.04,138.79Z"/>
        <polygon class="cls-13" points="1928.24 1124.22 1846.12 1214.99 1846.12 1076.87 1891.39 1076.87 1928.24 1124.22"/>
        <polygon class="cls-12" points="2539.7 1183.28 2539.7 1263.01 2036.29 1263.01 1928.24 1124.22 1971.07 1076.87 2356.77 1076.87 2539.7 1183.28"/>
        <polygon class="cls-4" points="1971.07 1076.87 1928.24 1124.22 1891.39 1076.87 1971.07 1076.87"/>
        <polygon class="cls-13" points="977.53 543.02 972.97 545.48 972.97 538.14 977.53 543.02"/>
        <polygon class="cls-13" points="591.63 755.36 493.68 860.97 493.68 755.36 591.63 755.36"/>
        <path class="cls-4" d="M1080.27,813.01l-107.31,57.29-85.66,45.74,11.01-40.9c4.19-15.57-7.54-30.87-23.65-30.87h-300.49c-13.53,0-24.5,10.97-24.5,24.5v19.67h-55.99v-27.48l97.95-105.6,112.71-121.51,178.33-192.25,90.3,96.54v7.34l-238.04,128.28c-4.01,2.16-7.5,4.69-10.49,7.49-13.45,12.59-16.92,30.79-12.4,46.74,5.26,18.58,21.37,34.1,45.17,34.1h310.32c28.16,0,37.58,37.66,12.74,50.92Z"/>
        <polygon class="cls-4" points="493.68 860.97 493.68 1302.74 176.42 1302.74 176.42 1203.01 468.2 888.44 493.68 860.97"/>
        <polygon class="cls-13" points="972.97 870.31 972.97 1120.08 887.75 1229.67 837.72 1100.22 887.3 916.05 972.97 870.31"/>
        <path class="cls-8" d="M972.97,545.48v216.62h-215.76c-23.81,0-39.91-15.52-45.17-34.1-4.52-15.95-1.05-34.15,12.4-46.74,2.99-2.81,6.48-5.33,10.49-7.49l238.04-128.28Z"/>
        <path class="cls-13" d="M660.99,981.52l-111.32,255.98-28.37,65.24h-27.62v-414.3h106.29c47.92,0,80.13,49.13,61.02,93.08Z"/>
        <path class="cls-13" d="M759.21,1781.39h-112.6c-13.87,0-25.11,11.25-25.11,25.11v419.76c0,13.87-11.24,25.11-25.11,25.11h-85.41l-169.52-212.85,185.88-200.4,145.23-156.58h1.69c34.02,0,63.84,22.75,72.83,55.57l12.13,44.26Z"/>
        <path class="cls-8" d="M1580.24,2488.88h-215.94l225.39-131.1,33.11,57.43c18.89,32.75-4.76,73.67-42.56,73.67Z"/>
        <path class="cls-13" d="M1589.69,2357.78l-225.39,131.1h-141.24c-35.95,0-65.09-29.14-65.09-65.09v-418.26h227.54c.36,0,.72,0,1.08-.02l203.1,352.27Z"/>
        <path class="cls-13" d="M1616.46,1332.05l-107.92,104.33c-13.56,13.11-31.49,15.3-46.46,9.69v-116.28h141.83c4.49,0,8.7.81,12.54,2.26Z"/>
        <polygon class="cls-8" points="1438.35 1773.29 1414.62 1759.8 1437.61 1720.36 1438.35 1773.29"/>
        <path class="cls-13" d="M1437.61,1720.36l-22.99,39.44-37.59-21.37c-47.37-26.93-28.26-99.21,26.22-99.21h33.22l1.13,81.14Z"/>
        <path class="cls-13" d="M852.12,1487.99l-134.67,145.19h-28.83c-46.66,0-72.9-53.65-44.27-90.49l42.54-54.7h165.23Z"/>
        <path class="cls-13" d="M2008.49,629.8h308.44c30.97,0,56.07-25.1,56.07-56.07v-175.4l-342.54,196.68c-14.27,8.19-21.16,21.38-21.96,34.79Z"/>
        <path class="cls-9" d="M2373,113.98v213.46h-483.1c-24.18,0-43.78,19.6-43.78,43.78v258.59h-327.97c-25.22,0-46.55,16.65-53.6,39.56h-73.7c-16.26,0-24.76,19.34-13.76,31.32l84.99,92.59v184.1h-378.15l200.49-257.84c28.64-36.83,2.39-90.49-44.26-90.49h-157.84c-15.52,0-30.34-6.43-40.95-17.77l-63.84-68.26,127.48-68.7,143.49,58.01c43.74,17.68,91.48-14.51,91.48-61.69v-122.95l45.12-24.32c23.41-12.62,14.45-48.15-12.15-48.15h-32.98v-45.67c0-36.75-29.79-66.54-66.54-66.54h-651.35l-28.87-30.87c-26.36-28.18-6.38-74.24,32.21-74.24h1691.51c30.97,0,56.07,25.1,56.07,56.07Z"/>
        <path class="cls-8" d="M1288.74,1329.79h-65.68c-35.95,0-65.09,29.14-65.09,65.09v89.37h-102.52v-151.47c0-22.83-28-33.82-43.53-17.08l-64.18,69.19-31.75-82.17h32.48c13.53,0,24.5-10.97,24.5-24.5v-158.15l55.17-70.95,260.61,280.66Z"/>
        <path class="cls-14" d="M1462.09,1053.42v392.65c-16.2-6.07-28.94-21.27-28.94-41.68v-302.32c0-22.48,12.29-39.72,28.94-48.66Z"/>
        <path class="cls-4" d="M1339.97,275.23v72.46l-234.97,126.63-132.04-53.38v-14.26c0-22.27-27.31-32.99-42.46-16.66l-9.28,10.01-124.54-50.35-141.02-57.01c-57.63-23.3-112.9,38.14-83.65,93l132.33,248.19-112.71,121.51h-97.95v-404.85c0-41.58,33.71-75.29,75.29-75.29h771.01Z"/>
        <path class="cls-2" d="M802.19,1008.28l35.53,91.94,50.03,129.45-56.81,73.06-144.05,185.26h-113.53c-44,0-79.68-35.67-79.68-79.68v-105.58h27.62l28.37-65.24,111.32-255.98c19.11-43.95-13.1-93.08-61.02-93.08h-50.3v-19.67c0-13.53,10.97-24.5,24.5-24.5h300.49c16.12,0,27.85,15.3,23.65,30.87l-11.01,40.9-63.41,33.86c-20.94,11.18-30.25,36.23-21.7,58.37Z"/>
        <path class="cls-13" d="M919.06,1487.99h-232.17l144.05-185.26,56.81-73.06,28.24,73.06,31.75,82.17,15.14,39.18c11.9,30.78-10.82,63.91-43.82,63.91Z"/>
        <path class="cls-8" d="M921.23,400.03l-38.56,41.57-178.33,192.25-132.33-248.19c-29.25-54.86,26.02-116.29,83.65-93l141.02,57.01,124.54,50.35Z"/>
        <polygon class="cls-4" points="972.97 420.94 972.97 538.14 882.67 441.6 921.23 400.03 972.97 420.94"/>
        <path class="cls-8" d="M1055.45,1484.26v148.92h-52.79v-97.93c0-28.16,22.83-50.99,50.99-50.99h1.79Z"/>
        <polygon class="cls-8" points="1484.91 1639.22 1437.61 1720.36 1436.48 1639.22 1484.91 1639.22"/>
        <path class="cls-10" d="M1634.38,1382.81l-115.46,198.07-34.01,58.35h-81.66c-54.49,0-73.59,72.29-26.22,99.21l37.59,21.37-66.31,113.76c-11.75,20.16-11.81,45.08-.15,65.29l38.43,66.65c-.36,0-.72.02-1.08.02h-227.54v-521.27h156.85c44.69,0,67.91-53.26,37.5-86l-63.57-68.46h144.4v74.61c0,20.41,12.74,35.61,28.94,41.68,14.97,5.61,32.9,3.42,46.46-9.69l107.92-104.33c19.43,7.33,29.36,31.13,17.91,50.76Z"/>
        <path class="cls-13" d="M2539.7,2262.37v-256.04l44.62,162.91c10.76,39.29-10.08,78.15-44.62,93.13Z"/>
        <path class="cls-4" d="M2207.85,1639.22h-9.81c-62.81-146-148.64-239.54-212.93-221.13-26.65,7.63-46.25,33.54-58.37,72.45l-94.17-101.88h203.17l207.2,118.97c62.61,35.95,37.1,131.59-35.09,131.59Z"/>
        <path class="cls-13" d="M1917.18,2167.29l-173.43,100.88c-38.69-5-68.59-38.07-68.59-78.12v-282.16l241.41,137.21c47.26,26.86,47.6,94.86.61,122.19Z"/>
        <path class="cls-4" d="M1832.58,1388.66h-76.44c-17.2,0-31.14-13.94-31.14-31.14v-147.28l82.54,47.39-21.62,23.9c-12.35,13.65-14.2,33.35-5.61,48.81,1.61,2.9,3.58,5.64,5.92,8.18l46.35,50.14Z"/>
        <path class="cls-1" d="M2539.7,2006.33v256.04c-9.54,4.13-20.11,6.45-31.35,6.45h-754.41c-3.45,0-6.85-.22-10.18-.66l173.43-100.88c46.99-27.33,46.65-95.33-.61-122.19l-241.41-137.21v-158.13l209.3,226.23c17.42,18.83,41.91,29.54,67.56,29.54h59.26c60.21,120.97,135.32,194.74,193.06,178.2,46.39-13.28,71.44-81.96,72.79-178.2h19.3c40.57,0,61.71-48.31,34.17-78.11l-67.55-73.08c-5.72-30.88-13.19-62.78-22.47-95.19-12.22-42.69-26.64-82.99-42.54-119.93h9.81c72.19,0,97.7-95.64,35.09-131.59l-207.2-118.97-101.56-58.31h360.25c35.49,0,66.6,23.73,75.97,57.96l169.28,618.02Z"/>
        <path class="cls-13" d="M2011.28,2005.53h-59.26c-25.65,0-50.14-10.71-67.56-29.54l-209.3-226.23v-110.53h238.05c3.26,61.45,14.98,131.2,35.66,203.45,17.15,59.89,38.61,115.05,62.4,162.85Z"/>
        <path class="cls-13" d="M2296.43,2005.53h-19.3c.63-45.26-3.98-96.62-14.08-151.19l67.55,73.08c27.54,29.8,6.41,78.11-34.17,78.11Z"/>
      </g>
    </g>
  </g>
</svg>