<?xml version="1.0" encoding="UTF-8"?>
<svg id="Layer_21" data-name="Layer 21" xmlns="http://www.w3.org/2000/svg" viewBox="0 0 300 300">
  <defs>
    <style>
      .cls-1 {
        fill: #b93232;
      }
    </style>
  </defs>
  <path class="cls-1" d="M61.46,266.13h177.07c12.2,0,21.06-11.61,17.83-23.37l-50.21-183.3c-2.2-8.03-9.5-13.6-17.83-13.6H61.46c-10.21,0-18.49,8.28-18.49,18.49v183.3c0,10.21,8.28,18.49,18.49,18.49ZM75.78,72.95c6.81-7.87,19.55-11.12,25.92-10.99,5.5.11,30.04-4.25,69.44,36.33,41.25,42.49,47.56,92.79,47.56,92.79,0,0,3.35,20.27,0,31.45-3.35,11.17-10.56,14.5-10.56,14.5,0,0-9.07,3.86-15.62-3.33-6.55-7.18-7.93-8.78-7.93-8.78L77.8,90.83s-8.83-10-2.02-17.88Z"/>
</svg>