<?xml version="1.0" encoding="UTF-8"?>
<svg id="Layer_21" data-name="Layer 21" xmlns="http://www.w3.org/2000/svg" viewBox="0 0 300 300">
  <defs>
    <style>
      .cls-1 {
        fill: #fff;
      }
    </style>
  </defs>
  <path class="cls-1" d="M258.53,262.32l-99.97-66.35c-5.08-3.37-12.03-3.37-17.12,0l-101.08,67.09c-11.62,7.71-27.24-3.03-21.94-15.09l38.64-87.83c1.34-3.04,1.34-6.42,0-9.46L18.73,63.54c-5.33-12.11,10.44-22.85,22.04-15.02l100.58,67.96c5.12,3.46,12.19,3.46,17.31,0l99.45-67.19c11.68-7.89,27.52,3.06,21.96,15.19l-39.44,86.04c-1.44,3.14-1.44,6.66,0,9.79l39.77,86.76c5.53,12.07-7.33,24.7-21.86,15.26Z"/>
</svg>