<?xml version="1.0" encoding="UTF-8"?>
<svg xmlns="http://www.w3.org/2000/svg" viewBox="0 0 300 300">
  <defs>
    <style>
      .cls-1 {
        isolation: isolate;
      }

      .cls-2 {
        fill: #3459b6;
        mix-blend-mode: overlay;
      }
    </style>
  </defs>
  <g class="cls-1">
    <g id="Layer_21" data-name="Layer 21">
      <path class="cls-2" d="M289.85,248.96l-116.38-125.9c-3.17-3.43-3.2-8.72-.07-12.18l46.93-51.87c4.58-5.06.99-13.15-5.84-13.15H17.35c-7.69,0-11.69,9.17-6.45,14.8l69.81,75.18c6.5,7,1.54,18.39-8.02,18.39H16.86c-6.02,0-10.9,4.88-10.9,10.9v88.95c0,6.4,5.19,11.59,11.59,11.59h70.26c6.6,0,11.92-5.4,11.82-11.99l-1.28-91.66c-.02-1.43,1.13-2.59,2.56-2.59.71,0,1.39.3,1.88.82l91.69,99.11c3.72,4.03,8.96,6.32,14.44,6.32h73.63c8.67,0,13.19-10.33,7.3-16.7ZM145.39,113.74l-31.28,30.24c-6.04,5.83-16.12,1.56-16.12-6.84v-64.63c0-10.82,13.32-15.97,20.6-7.96l27.42,30.19c4.96,5.46,4.69,13.87-.62,18.99Z"/>
    </g>
  </g>
</svg>