<?xml version="1.0" encoding="UTF-8"?>
<svg id="Layer_21" data-name="Layer 21" xmlns="http://www.w3.org/2000/svg" viewBox="0 0 300 300">
  <defs>
    <style>
      .cls-1 {
        fill: #fff;
      }
    </style>
  </defs>
  <path class="cls-1" d="M47.1,74.47h0c-13.35,13.89-8.35,36.88,9.57,43.98l114.96,45.54c16.12,6.39,29.57,18.11,38.1,33.21h0c5,8.85,5.05,19.67.14,28.57h0c-7.46,13.52-21.75,21.84-37.19,21.64h0c-15.04-.19-29.65-5.04-41.81-13.89L29.72,159.92c-5.9-4.29-14.18-.08-14.18,7.22v89.58c0,4.93,4,8.92,8.92,8.93h91.46s160.17-.6,160.17-.6c5.52-.02,9.51-5.28,8.05-10.61l-52.58-191.7c-2.24-9.65-5.27-17.45-23.83-16.86h-93.54c-25.32,0-49.55,10.32-67.09,28.58Z"/>
</svg>