<?xml version="1.0" encoding="UTF-8"?>
<svg id="Layer_21" data-name="Layer 21" xmlns="http://www.w3.org/2000/svg" viewBox="0 0 300 300">
  <defs>
    <style>
      .cls-1 {
        fill: #b93232;
      }
    </style>
  </defs>
  <path class="cls-1" d="M260.1,55.37v61.02c0,5.26-4.26,9.52-9.52,9.52h-76.47c-7.92,0-12.38,9.11-7.51,15.36l84.87,109.03c4.87,6.25.41,15.36-7.51,15.36h-96.03c-5.26,0-9.52-4.26-9.52-9.52v-120.67c0-5.26-4.26-9.52-9.52-9.52h-27.87c-2.67,0-5.21-1.12-7.01-3.08L32.11,55.42c-3.36-3.66-.76-9.57,4.21-9.57h214.27c5.26,0,9.52,4.26,9.52,9.52Z"/>
</svg>